<svg xmlns="http://www.w3.org/2000/svg" xmlns:xlink="http://www.w3.org/1999/xlink" width="500" zoomAndPan="magnify" viewBox="0 0 375 374.999991" height="500" preserveAspectRatio="xMidYMid meet" version="1.0"><defs><clipPath id="56ce2c4e3f"><path d="M 0 106 L 257 106 L 257 373.640625 L 0 373.640625 Z M 0 106 " clip-rule="nonzero"/></clipPath><clipPath id="898edef301"><path d="M 99 1.640625 L 373 1.640625 L 373 276 L 99 276 Z M 99 1.640625 " clip-rule="nonzero"/></clipPath></defs><g clip-path="url(#56ce2c4e3f)"><path fill="#166534" d="M 235.191406 151.574219 L 149.125 110.480469 C 143.34375 107.722656 135.726562 106.34375 128.105469 106.34375 C 120.484375 106.34375 112.867188 107.722656 107.085938 110.480469 L 21.019531 151.574219 C 9.457031 157.09375 0 172.089844 0 184.898438 L 0 283.878906 C 0 296.6875 9.113281 312.347656 20.253906 318.675781 L 107.851562 368.445312 C 113.421875 371.609375 120.765625 373.191406 128.105469 373.191406 C 135.445312 373.191406 142.789062 371.609375 148.359375 368.445312 L 235.957031 318.675781 C 247.097656 312.347656 256.210938 296.6875 256.210938 283.878906 L 256.210938 184.898438 C 256.210938 172.089844 246.753906 157.09375 235.191406 151.574219 Z M 128.105469 154.792969 C 139.359375 154.792969 148.484375 160.007812 148.484375 166.441406 C 148.484375 172.871094 139.359375 178.085938 128.105469 178.085938 C 116.851562 178.085938 107.726562 172.871094 107.726562 166.441406 C 107.726562 160.007812 116.851562 154.792969 128.105469 154.792969 Z M 45.96875 303.335938 C 44.722656 303.953125 43.398438 304.25 42.035156 304.25 C 36.082031 304.25 29.417969 298.632812 25.769531 289.882812 C 21.28125 279.132812 23.058594 267.726562 29.730469 264.402344 C 30.972656 263.785156 32.300781 263.488281 33.664062 263.488281 C 39.617188 263.488281 46.285156 269.109375 49.929688 277.855469 C 54.414062 288.605469 52.640625 300.011719 45.96875 303.335938 Z M 45.96875 239.285156 C 44.722656 239.902344 43.398438 240.199219 42.035156 240.199219 C 36.082031 240.199219 29.417969 234.578125 25.769531 225.832031 C 21.28125 215.082031 23.058594 203.671875 29.730469 200.351562 C 30.972656 199.730469 32.300781 199.4375 33.664062 199.4375 C 39.617188 199.4375 46.285156 205.054688 49.929688 213.800781 C 54.414062 224.554688 52.640625 235.960938 45.96875 239.285156 Z M 104.195312 335.363281 C 102.953125 335.980469 101.628906 336.277344 100.265625 336.277344 C 94.3125 336.277344 87.644531 330.65625 84 321.910156 C 79.511719 311.160156 81.289062 299.753906 87.957031 296.429688 C 89.203125 295.8125 90.53125 295.515625 91.890625 295.515625 C 97.847656 295.515625 104.515625 301.132812 108.160156 309.882812 C 112.644531 320.632812 110.871094 332.039062 104.195312 335.363281 Z M 104.195312 271.308594 C 102.953125 271.929688 101.628906 272.222656 100.265625 272.222656 C 94.3125 272.222656 87.644531 266.605469 84 257.855469 C 79.511719 247.105469 81.289062 235.699219 87.957031 232.378906 C 89.203125 231.757812 90.53125 231.464844 91.890625 231.464844 C 97.847656 231.464844 104.515625 237.082031 108.160156 245.828125 C 112.644531 256.578125 110.871094 267.988281 104.195312 271.308594 Z M 172.214844 321.910156 C 168.566406 330.65625 161.898438 336.277344 155.945312 336.277344 C 154.582031 336.277344 153.257812 335.980469 152.015625 335.363281 C 145.339844 332.039062 143.566406 320.632812 148.050781 309.882812 C 151.699219 301.132812 158.363281 295.515625 164.320312 295.515625 C 165.683594 295.515625 167.007812 295.8125 168.253906 296.429688 C 174.921875 299.753906 176.699219 311.160156 172.214844 321.910156 Z M 172.214844 257.855469 C 168.566406 266.605469 161.898438 272.222656 155.945312 272.222656 C 154.582031 272.222656 153.257812 271.929688 152.015625 271.308594 C 145.339844 267.988281 143.566406 256.578125 148.050781 245.828125 C 151.699219 237.082031 158.363281 231.464844 164.320312 231.464844 C 165.683594 231.464844 167.007812 231.757812 168.253906 232.378906 C 174.921875 235.699219 176.699219 247.105469 172.214844 257.855469 Z M 230.441406 289.882812 C 226.796875 298.632812 220.128906 304.25 214.175781 304.25 C 212.8125 304.25 211.488281 303.953125 210.246094 303.335938 C 203.570312 300.011719 201.796875 288.605469 206.28125 277.855469 C 209.925781 269.109375 216.59375 263.488281 222.546875 263.488281 C 223.910156 263.488281 225.238281 263.785156 226.480469 264.402344 C 233.152344 267.726562 234.929688 279.132812 230.441406 289.882812 Z M 230.441406 225.832031 C 226.796875 234.578125 220.128906 240.199219 214.175781 240.199219 C 212.8125 240.199219 211.488281 239.902344 210.246094 239.285156 C 203.570312 235.960938 201.796875 224.554688 206.28125 213.800781 C 209.925781 205.054688 216.59375 199.4375 222.546875 199.4375 C 223.910156 199.4375 225.238281 199.730469 226.480469 200.351562 C 233.152344 203.671875 234.929688 215.082031 230.441406 225.832031 Z M 239.007812 177.007812 L 133.929688 234.898438 L 133.929688 356.65625 C 133.929688 359.875 131.320312 362.480469 128.105469 362.480469 C 124.890625 362.480469 122.28125 359.875 122.28125 356.65625 L 122.28125 235.339844 L 16.359375 176.148438 C 13.546875 174.585938 12.539062 171.039062 14.101562 168.230469 C 15.667969 165.421875 19.210938 164.414062 22.023438 165.972656 L 127.707031 225.03125 L 233.375 166.8125 C 236.195312 165.261719 239.734375 166.28125 241.289062 169.09375 C 242.84375 171.910156 241.824219 175.453125 239.007812 177.007812 Z M 239.007812 177.007812 " fill-opacity="1" fill-rule="nonzero"/></g><g clip-path="url(#898edef301)"><path fill="#166534" d="M 338.71875 65.132812 C 334.449219 53.054688 321.070312 39.679688 308.992188 35.410156 L 218.5 3.398438 C 215.175781 2.226562 211.464844 1.667969 207.636719 1.667969 C 197.535156 1.667969 186.636719 5.535156 180.070312 12.101562 L 109.636719 82.535156 C 105.042969 87.132812 101.59375 93.910156 99.75 101.082031 L 102.070312 99.972656 C 109.195312 96.570312 118.441406 94.695312 128.105469 94.695312 C 128.972656 94.695312 129.828125 94.730469 130.6875 94.757812 C 134.105469 91.046875 138.070312 88.800781 141.730469 88.800781 C 142.707031 88.800781 143.65625 88.957031 144.570312 89.28125 C 148.09375 90.53125 150.332031 94.050781 151.09375 98.667969 C 152.144531 99.074219 153.167969 99.507812 154.144531 99.972656 L 190.890625 117.515625 C 194.847656 110.683594 200.617188 106.269531 205.785156 106.269531 C 206.761719 106.269531 207.710938 106.425781 208.625 106.75 C 214.929688 108.984375 217.152344 118.46875 214.0625 128.578125 L 229.222656 135.816406 L 232.21875 132.796875 L 200.601562 19.832031 C 199.726562 16.738281 201.527344 13.519531 204.625 12.648438 C 207.726562 11.777344 210.9375 13.574219 211.808594 16.671875 L 243.742188 130.757812 L 357.070312 163.078125 C 360.164062 163.960938 361.953125 167.183594 361.070312 170.277344 C 360.339844 172.835938 358.007812 174.5 355.476562 174.5 C 355 174.5 262.707031 148.257812 243.320312 142.742188 C 249.832031 146.628906 255.601562 152.558594 259.90625 159.414062 C 263.5625 160.433594 266.308594 162.488281 267.375 165.5 C 268.304688 168.121094 267.839844 171.058594 266.300781 173.925781 C 267.292969 177.589844 267.855469 181.289062 267.855469 184.898438 L 267.855469 275.378906 C 276.855469 274.082031 285.894531 270.1875 291.589844 264.488281 L 362.023438 194.054688 C 371.082031 184.996094 374.996094 167.703125 370.726562 155.628906 Z M 195.753906 69.257812 C 192.058594 77.417969 184.828125 82.976562 178.53125 82.976562 C 177.554688 82.976562 176.605469 82.84375 175.691406 82.566406 C 168.878906 80.496094 166.824219 71.175781 171.09375 61.757812 C 174.789062 53.601562 182.019531 48.039062 188.316406 48.039062 C 189.289062 48.039062 190.242188 48.171875 191.15625 48.449219 C 197.96875 50.523438 200.027344 59.839844 195.753906 69.257812 Z M 297.574219 109.789062 C 296.015625 111.351562 293.828125 112.09375 291.300781 112.09375 C 286.074219 112.09375 279.390625 108.929688 273.75 103.289062 C 265.375 94.914062 262.464844 84.242188 267.246094 79.460938 C 268.8125 77.898438 271 77.15625 273.535156 77.15625 C 278.757812 77.15625 285.4375 80.316406 291.078125 85.957031 C 299.457031 94.332031 302.367188 105 297.574219 109.789062 Z M 315.90625 203.035156 C 312.027344 204.539062 308.164062 205.261719 304.679688 205.261719 C 298.296875 205.261719 293.191406 202.84375 291.628906 198.4375 C 289.214844 191.625 296.160156 182.640625 307.152344 178.371094 C 311.03125 176.863281 314.894531 176.144531 318.378906 176.144531 C 324.761719 176.144531 329.867188 178.5625 331.429688 182.972656 C 333.847656 189.78125 326.898438 198.765625 315.90625 203.035156 Z M 315.90625 203.035156 " fill-opacity="1" fill-rule="nonzero"/></g></svg>